<?xml version="1.0" encoding="utf-8"?>
<!-- Generator: Adobe Illustrator 16.0.0, SVG Export Plug-In . SVG Version: 6.00 Build 0)  -->
<!DOCTYPE svg PUBLIC "-//W3C//DTD SVG 1.1//EN" "http://www.w3.org/Graphics/SVG/1.1/DTD/svg11.dtd">
<svg version="1.1" id="Calque_3" xmlns="http://www.w3.org/2000/svg" xmlns:xlink="http://www.w3.org/1999/xlink" x="0px" y="0px"
	 width="450px" height="240px" viewBox="0 0 450 240" enable-background="new 0 0 450 240" xml:space="preserve">
<g>
	<path fill-rule="evenodd" clip-rule="evenodd" d="M223.506,26.816c0.353,2.202,1.009,4.404,1.011,6.607
		c0.059,47.549,0.051,95.098,0.027,142.645c0,1.994-0.259,3.99-0.415,6.254c-8.314,0-16.07,0-24.152,0
		c-0.444-2.008-0.875-3.959-1.418-6.412c-1.193,0.947-2.243,1.713-3.219,2.566c-11.614,10.143-26.639,7.197-33.494-6.623
		c-3.812-7.684-5.395-16.037-5.94-24.432c-1.107-17.041-1.886-34.161,2.155-50.975c1.139-4.743,2.864-9.508,5.225-13.764
		c6.947-12.532,20.184-15.404,32.064-7.371c0.652,0.439,1.325,0.842,2.64,1.676c0.128-2.076,0.303-3.603,0.307-5.132
		c0.022-12.556-0.013-25.112,0.034-37.667c0.01-2.458,0.301-4.915,0.463-7.373C207.031,26.816,215.27,26.816,223.506,26.816z
		 M198.305,127.164c0-10.479,0.055-20.962-0.026-31.442c-0.032-4.248-1.353-5.817-4.951-6.59c-3.564-0.765-6.515,0.707-7.778,4.331
		c-0.802,2.296-1.366,4.785-1.438,7.206c-0.433,14.367-0.863,28.74-0.917,43.111c-0.019,5.094,0.701,10.256,1.668,15.273
		c0.874,4.539,3.448,6.213,7.285,5.803c4.432-0.475,6.114-2.42,6.143-7.479C198.348,147.307,198.307,137.236,198.305,127.164z"/>
	<path fill-rule="evenodd" clip-rule="evenodd" d="M67.822,26.816c0.334,2.411,0.956,4.82,0.959,7.232
		c0.062,35.557,0.05,71.115,0.026,106.672c-0.001,2.201-0.249,4.4-0.418,7.203c-9.204-0.563-17.919,1.629-26.514-1.254
		c0-39.952,0-79.903,0-119.854C50.523,26.816,59.173,26.816,67.822,26.816z"/>
	<path fill-rule="evenodd" clip-rule="evenodd" d="M41.875,156.555c8.603,0,17.207,0,26.608,0
		c0.571,8.535,0.476,16.803-0.006,25.945c-9.128,0-17.865,0-26.603,0C41.875,173.852,41.875,165.203,41.875,156.555z"/>
	<path fill-rule="evenodd" clip-rule="evenodd" d="M261.81,26.816c0,8.557,0,17.113,0,26.182c-8.471,0-16.717,0-25.646,0
		c0.159-8.934-1.573-17.578,0.934-26.182C245.335,26.816,253.573,26.816,261.81,26.816z"/>
	<path fill-rule="evenodd" clip-rule="evenodd" d="M282.189,173.271c-18.102-7.955-16.979-26.375-0.299-37.229
		c-0.218-0.502-0.298-1.225-0.692-1.523c-12.545-9.457-13.155-32.938-7.919-44.579c7.441-16.541,25.627-23.625,42.354-16.314
		c1.101,0.481,2.216,0.93,3.471,1.457c5.511-7.968,11.985-14.237,22.685-15.239c0,7.667,0,14.905,0,22.152
		c-10.047-0.104-10.047-0.104-13.78,2.057c8.965,14.669,9.221,29.635-0.198,43.986c-8.151,12.426-20.552,15.504-34.582,13.029
		c-2.638,4.555-2.403,6.605,1.694,8.285c3.765,1.543,7.865,2.256,11.799,3.396c6.493,1.879,13.187,3.289,19.412,5.832
		c9.723,3.973,15.353,11.498,16.069,22.191c0.772,11.506-2.758,21.336-12.903,27.496c-4.452,2.701-9.721,4.523-14.856,5.541
		c-10.603,2.096-21.397,2.008-31.64-1.76c-4.687-1.723-9.397-4.467-12.969-7.914c-7.684-7.42-6.67-18.176,1.844-24.652
		C274.749,177.146,278.353,175.508,282.189,173.271z M293.486,106.592c0.724,4.171,1.24,8.644,2.336,12.971
		c0.806,3.184,3.12,5.422,6.665,5.367c3.546-0.053,5.575-2.324,6.487-5.568c2.444-8.675,2.411-17.392-0.003-26.054
		c-0.878-3.158-2.838-5.492-6.427-5.695c-3.096-0.176-5.902,1.922-6.911,5.908C294.587,97.65,294.218,101.952,293.486,106.592z
		 M303.854,197.439c3.446-0.926,8.065-1.447,11.979-3.391c5.876-2.914,5.553-9.352-0.324-12.266
		c-2.538-1.26-5.364-1.971-8.099-2.795c-6.723-2.027-12.604,0.078-17.645,4.373c-5.044,4.299-3.645,10.369,2.733,12.203
		C295.813,196.516,299.34,196.725,303.854,197.439z"/>
	<path fill-rule="evenodd" clip-rule="evenodd" d="M145.597,182.238c-8.806,0-16.942,0-25.598,0
		c-0.113-2.574-0.294-4.777-0.296-6.98c-0.02-23.262-0.011-46.525-0.017-69.791c-0.001-1.853,0.072-3.717-0.11-5.554
		c-0.479-4.851-2.99-7.546-6.858-6.935c-5.124,0.81-7.089,2.745-7.054,7.527c0.178,24.704,0.092,49.409,0.065,74.112
		c-0.002,2.424-0.222,4.848-0.357,7.633c-8.63,0-16.772,0-24.893,0c-1.625-4.396-1.991-102.09-0.329-109.286
		c8.002,0,16.129,0,24.863,0c0.394,2.411,0.809,4.953,1.343,8.233c2.067-1.602,3.776-2.953,5.512-4.267
		c5.239-3.967,10.969-6.321,17.725-5.949c7.183,0.396,12.145,3.895,14.498,10.519c1.214,3.418,1.846,7.223,1.866,10.857
		c0.154,28.616,0.101,57.233,0.087,85.846C146.043,179.398,145.787,180.594,145.597,182.238z"/>
	<path fill-rule="evenodd" clip-rule="evenodd" d="M411.487,127.953c0.504,10.348-0.287,20.568-3.593,30.436
		c-1.233,3.676-2.774,7.307-4.629,10.705c-11.087,20.307-41.936,20.52-53.384-0.301c-4.135-7.52-6.484-15.602-7.327-24.004
		c-1.519-15.184-1.865-30.428,2.174-45.325c1.325-4.893,3.446-9.704,5.968-14.115c11.046-19.316,40.613-19.321,52.021-0.243
		c5.751,9.613,7.964,20.175,8.725,31.132C411.712,120.129,411.484,124.049,411.487,127.953z M384.33,127.932
		c-0.493-9.048-0.938-18.06-1.518-27.064c-0.133-2.021-0.678-4.026-1.146-6.013c-0.632-2.673-2.241-4.475-5.118-4.411
		c-2.577,0.058-4.085,1.75-4.696,4.155c-0.504,1.979-1.021,3.984-1.211,6.008c-1.692,18.023-1.675,36.057,0.002,54.081
		c0.172,1.822,0.628,3.627,1.063,5.412c0.625,2.582,1.956,4.648,4.892,4.725c2.935,0.078,4.424-1.842,5.061-4.469
		c0.482-1.982,1.019-3.99,1.153-6.012C383.392,145.547,383.837,136.738,384.33,127.932z"/>
	<path fill-rule="evenodd" clip-rule="evenodd" d="M261.44,182.383c-8.323,0-16.294,0-24.198,0
		c-1.602-4.279-2.079-101.24-0.504-109.384c7.991,0,16.102,0,24.231,0C262.41,77.096,262.93,173.086,261.44,182.383z"/>
	<path fill-rule="evenodd" clip-rule="evenodd" fill="none" d="M198.307,127.164c0,10.072,0.041,20.143-0.016,30.213
		c-0.029,5.059-1.711,7.004-6.143,7.479c-3.837,0.41-6.411-1.264-7.285-5.803c-0.967-5.018-1.687-10.18-1.668-15.273
		c0.054-14.371,0.484-28.744,0.917-43.111c0.072-2.421,0.637-4.91,1.438-7.206c1.263-3.624,4.213-5.096,7.778-4.331
		c3.598,0.772,4.918,2.342,4.951,6.59C198.36,106.202,198.305,116.685,198.307,127.164z"/>
	<path fill-rule="evenodd" clip-rule="evenodd" fill="none" d="M293.486,106.592c0.731-4.64,1.101-8.941,2.147-13.072
		c1.009-3.986,3.815-6.084,6.911-5.908c3.589,0.204,5.549,2.537,6.427,5.695c2.414,8.662,2.447,17.379,0.003,26.054
		c-0.912,3.244-2.941,5.516-6.487,5.568c-3.545,0.055-5.859-2.184-6.665-5.367C294.727,115.236,294.21,110.763,293.486,106.592z"/>
	<path fill-rule="evenodd" clip-rule="evenodd" fill="none" d="M303.854,197.439c-4.514-0.715-8.04-0.924-11.354-1.875
		c-6.378-1.834-7.777-7.904-2.733-12.203c5.041-4.295,10.922-6.4,17.645-4.373c2.734,0.824,5.561,1.535,8.099,2.795
		c5.877,2.914,6.2,9.352,0.324,12.266C311.919,195.992,307.3,196.514,303.854,197.439z"/>
	<path fill-rule="evenodd" clip-rule="evenodd" fill="none" d="M384.33,127.932c-0.493,8.807-0.938,17.615-1.52,26.412
		c-0.135,2.021-0.671,4.029-1.153,6.012c-0.637,2.627-2.126,4.547-5.061,4.469c-2.936-0.076-4.267-2.143-4.892-4.725
		c-0.435-1.785-0.891-3.59-1.063-5.412c-1.677-18.023-1.694-36.057-0.002-54.081c0.19-2.023,0.707-4.029,1.211-6.008
		c0.611-2.405,2.119-4.097,4.696-4.155c2.877-0.064,4.486,1.738,5.118,4.411c0.469,1.986,1.014,3.992,1.146,6.013
		C383.392,109.872,383.837,118.883,384.33,127.932z"/>
</g>
</svg>
